HIERARCHY
ROOT Hips
{
  OFFSET 7.333 -26.027 -164.856
  CHANNELS 6 Xposition Yposition Zposition Zrotation Xrotation Yrotation
  JOINT LeftUpLeg
  {
    OFFSET 10.092 0.000 0.000
    CHANNELS 3 Zrotation Xrotation Yrotation
    JOINT LeftLeg
    {
      OFFSET 0.000 -38.160 -0.000
    CHANNELS 3 Zrotation Xrotation Yrotation
      JOINT LeftFoot
      {
        OFFSET -0.000 -24.040 0.000
    CHANNELS 3 Zrotation Xrotation Yrotation
        End Site
        {
          OFFSET -0.000 0.000 12.945
        }
      }
    }
  }
  JOINT RightUpLeg
  {
    OFFSET -10.092 -0.000 0.000
    CHANNELS 3 Zrotation Xrotation Yrotation
    JOINT RightLeg
    {
      OFFSET 0.000 -33.046 0.000
    CHANNELS 3 Zrotation Xrotation Yrotation
      JOINT RightFoot
      {
        OFFSET 0.000 -22.031 -0.000
    CHANNELS 3 Zrotation Xrotation Yrotation
        End Site
        {
          OFFSET 0.000 -0.000 11.863
        }
      }
    }
  }
  JOINT Spine
  {
    OFFSET -0.000 16.511 0.000
    CHANNELS 3 Zrotation Xrotation Yrotation
    JOINT LeftShoulder
    {
      OFFSET 0 16.511 0
    CHANNELS 3 Zrotation Xrotation Yrotation
      JOINT LeftArm
      {
        OFFSET 16.337 0.000 0.000
    CHANNELS 3 Zrotation Xrotation Yrotation
        JOINT LeftForeArm
        {
          OFFSET 0.000 -24.030 0.000
    CHANNELS 3 Zrotation Xrotation Yrotation
          JOINT LeftHand
          {
            OFFSET 0.000 -17.629 -0.000
    CHANNELS 3 Zrotation Xrotation Yrotation
            End Site
            {
              OFFSET 0.000 -11.753 -0.000
            }
          }
        }
      }
    }
    JOINT RightShoulder
    {
      OFFSET 0 16.511 0
    CHANNELS 3 Zrotation Xrotation Yrotation
      JOINT RightArm
      {
        OFFSET -16.337 0.000 0.000
    CHANNELS 3 Zrotation Xrotation Yrotation
        JOINT RightForeArm
        {
          OFFSET -0.000 -19.534 0.000
    CHANNELS 3 Zrotation Xrotation Yrotation
          JOINT RightHand
          {
            OFFSET 0.000 -19.514 -0.000
    CHANNELS 3 Zrotation Xrotation Yrotation
            End Site
            {
              OFFSET 0.000 -13.010 -0.000
            }
          }
        }
      }
    }
    JOINT Neck
    {
      OFFSET -0.000 16.511 0.000
    CHANNELS 3 Zrotation Xrotation Yrotation
      JOINT Head
      {
        OFFSET -0.000 12.493 -0.000
    CHANNELS 3 Zrotation Xrotation Yrotation
        End Site
        {
          OFFSET -0.000 8.328 -0.000
        }
      }
    }
  }
}
MOTION
Frames: 17
Frame Time: 0.0333333
0 0 0 -5.641650e-01 -1.799441e+00 -9.917822e+00 -2.682850e+00 1.432577e+01 6.643330e-01 4.545220e+00 -1.861470e+01 6.213350e-01 0 NaN NaN 5.915530e-01 1.439976e+01 -1.470800e-01 3.317935e+00 -2.181410e+01 1.386760e+00 0 1.263061e-08 8.660342e-10 -2.614673e-07 -2.971328e-06 3.600000e-05 0 0 0 5.903261e+01 2.313412e+00 7.997104e+00 8.881340e+01 -1.104100e+01 8.589615e+01 -2.012374e-08 5.446427e-08 -4.328925e-08 0 0 0 -6.244200e+01 -1.115660e+01 1.254872e+01 -9.031163e+01 1.037197e+01 NaN NaN 6.811361e-07 1.160396e-08 -2.020790e-01 -1.088530e+00 -3.837667e-03 0 0 1.107382e-08 
0 0 0 -1.150660e+00 -6.011010e-01 -1.100250e+01 -1.127570e+00 1.296440e+01 2.529270e-01 3.854370e+00 -1.783190e+01 8.443960e-01 0 2.811390e-08 7.747112e-09 1.970160e+00 1.290710e+01 -4.403080e-01 3.044850e+00 NaN 1.711170e+00 0 2.803245e-08 -3.241805e-08 NaN NaN -8.200000e-05 0 0 0 5.337650e+01 1.096310e+01 1.491080e+01 7.284800e+01 -1.439630e+01 4.930730e+01 NaN NaN NaN 0 0 0 -5.406250e+01 -7.819760e+00 1.308740e+01 -7.812130e+01 1.399560e+01 1.454831e+01 -8.408979e-08 NaN 1.362231e-07 1.491800e-01 -7.053380e-01 1.834000e-03 0 0 NaN 
0 0 0 -1.417500e+00 -5.154690e-01 -1.162640e+01 -3.997490e-01 1.324920e+01 9.158800e-02 3.480070e+00 -1.825045e+01 9.689500e-01 0 NaN 9.610974e-09 2.729930e+00 1.295460e+01 -6.124630e-01 2.786405e+00 -2.169202e+01 1.928920e+00 0 3.594981e-08 -9.738242e-09 1.336943e-06 -9.531082e-07 3.401189e-05 0 0 0 4.852510e+01 1.740352e+01 2.165760e+01 5.536408e+01 -2.051380e+01 3.433065e+01 -1.914909e-08 1.822892e-07 -6.303371e-08 0 0 0 -4.944700e+01 -4.812093e+00 1.206412e+01 -6.398361e+01 1.517936e+01 2.427127e+01 -1.323489e-23 NaN NaN 2.150070e-01 -4.360420e-01 1.638000e-03 0 0 6.461382e-08 
0 0 0 -9.810170e-01 -5.248093e-01 -1.168318e+01 -9.056070e-01 1.313623e+01 2.058260e-01 3.566372e+00 -1.782540e+01 8.224950e-01 0 NaN -1.500489e-08 2.163410e+00 1.269880e+01 -4.758160e-01 3.189577e+00 -2.228339e+01 1.825030e+00 0 -2.631579e-08 -1.086581e-08 7.859258e-07 -1.948999e-06 -1.120000e-04 0 0 0 4.396450e+01 1.960043e+01 2.611910e+01 4.133249e+01 -1.960000e+01 2.279532e+01 1.854602e-08 NaN -4.218759e-08 0 0 0 -4.368768e+01 -1.570931e+00 1.036809e+01 -5.861660e+01 1.211022e+01 2.771226e+01 NaN 5.782431e-08 NaN 2.268299e-01 -4.052850e-01 1.611047e-03 0 0 2.320823e-07 
0 0 0 -1.108350e+00 -4.504450e-01 -1.184158e+01 -9.584690e-01 1.296330e+01 2.149610e-01 3.625350e+00 -1.711190e+01 7.924090e-01 0 1.664273e-08 5.086758e-10 2.583483e+00 1.210920e+01 -5.424480e-01 2.246740e+00 NaN 1.525527e+00 0 NaN -3.785655e-08 8.720492e-06 0 -1.320000e-04 0 0 0 3.939750e+01 2.218940e+01 3.162340e+01 3.504240e+01 -2.326690e+01 2.114290e+01 -1.542968e-08 NaN -3.566559e-07 0 0 0 -3.896542e+01 -4.746940e-01 1.018130e+01 -5.564680e+01 1.085201e+01 3.109033e+01 -3.163866e-08 1.037484e-07 1.833302e-07 2.688470e-01 -5.536620e-01 2.593824e-03 0 0 NaN 
0 0 0 -1.008190e+00 8.690578e-02 -1.149871e+01 -7.644310e-01 1.311250e+01 1.734000e-01 3.322370e+00 -1.910280e+01 8.441480e-01 0 1.666034e-08 -1.866276e-08 2.732230e+00 1.198170e+01 -5.676510e-01 2.149520e+00 -2.060840e+01 1.643230e+00 0 2.968167e-08 -2.400295e-08 NaN -2.577401e-06 -6.100000e-05 0 0 0 3.712140e+01 2.224537e+01 3.360730e+01 3.333281e+01 -2.478552e+01 2.100556e+01 -4.678653e-09 2.182833e-08 NaN 0 0 0 -3.646260e+01 2.472705e-01 9.820407e+00 -5.612107e+01 9.975784e+00 3.077012e+01 -1.053954e-07 NaN NaN 2.620380e-01 -1.378130e-01 6.300000e-04 0 0 NaN 
0 0 0 -8.282070e-01 -2.985570e-01 -1.138208e+01 -1.156700e+00 1.273796e+01 2.551160e-01 4.009250e+00 -1.807350e+01 8.944961e-01 0 NaN -1.973873e-08 2.332081e+00 1.190550e+01 -4.812455e-01 2.306520e+00 -2.139769e+01 1.488410e+00 0 2.599461e-08 -1.952280e-08 -1.000000e-06 -3.288678e-06 9.000000e-06 0 0 0 3.617034e+01 2.199356e+01 3.423762e+01 3.345309e+01 -2.524952e+01 2.135388e+01 -1.166177e-08 8.182414e-08 NaN 0 0 0 -3.578764e+01 -5.787028e-02 1.038362e+01 -5.699515e+01 1.029929e+01 3.029746e+01 NaN NaN NaN 2.354210e-01 -4.572820e-01 1.875660e-03 0 0 6.279567e-07 
0 0 0 -1.135508e+00 -6.285860e-01 -1.191751e+01 -6.606880e-01 1.322270e+01 1.510990e-01 3.716760e+00 -1.770400e+01 9.363505e-01 0 4.000000e-08 -2.856541e-09 2.950580e+00 1.214600e+01 -6.213680e-01 1.793260e+00 -2.079670e+01 1.491230e+00 0 NaN -3.235180e-08 1.139039e-06 NaN 6.700000e-05 0 0 0 3.836229e+01 2.201139e+01 3.234691e+01 3.576796e+01 -2.443670e+01 2.225010e+01 2.356805e-09 NaN -1.137046e-07 0 0 0 -3.763035e+01 -1.363916e+00 1.169020e+01 -5.927121e+01 1.130709e+01 3.018555e+01 NaN 7.536457e-08 8.266376e-08 5.737000e-03 -4.714740e-01 4.700000e-05 0 0 NaN 
0 0 0 -1.128164e+00 -6.503160e-01 -1.211910e+01 -4.192595e-01 1.354220e+01 9.746593e-02 2.846900e+00 -1.850350e+01 7.742702e-01 0 NaN -3.538433e-09 2.953020e+00 1.251600e+01 -6.404550e-01 1.675562e+00 -2.057457e+01 1.509113e+00 0 3.176119e-08 -3.997425e-08 5.921329e-08 0 1.100000e-04 0 0 0 4.149390e+01 2.150877e+01 2.943264e+01 3.852953e+01 -2.308075e+01 2.328599e+01 5.214007e-09 NaN NaN 0 0 0 -4.277661e+01 -4.930093e+00 1.424515e+01 -5.900748e+01 1.614485e+01 3.173362e+01 -1.961882e-08 -6.613867e-08 -9.662485e-08 3.191700e-02 -4.948173e-01 2.740000e-04 0 0 NaN 
0 0 0 -1.194310e+00 -2.766612e-01 -1.206120e+01 -3.420420e-01 1.277070e+01 7.561500e-02 3.114020e+00 -1.765850e+01 8.440240e-01 0 NaN -1.207467e-08 2.592170e+00 1.200750e+01 -5.396210e-01 2.936025e+00 -2.167920e+01 1.781385e+00 0 2.141718e-08 NaN -6.330005e-08 -2.589954e-06 5.300000e-05 0 0 0 4.437489e+01 1.975756e+01 2.594440e+01 4.852342e+01 -2.095150e+01 2.860776e+01 -2.148608e-08 1.127053e-07 NaN 0 0 0 -4.736510e+01 -7.673910e+00 1.520420e+01 -6.141600e+01 1.898693e+01 3.710291e+01 -8.771494e-08 NaN NaN 1.406070e-01 -5.327846e-01 1.307000e-03 0 0 7.775289e-08 
0 0 0 -1.530201e+00 -2.443090e-01 -1.235278e+01 1.671920e-01 1.254520e+01 -3.627500e-02 2.979120e+00 -1.667805e+01 9.024180e-01 0 1.483634e-08 9.024088e-09 3.379940e+00 1.232410e+01 -7.221750e-01 2.245805e+00 -2.208250e+01 1.859290e+00 0 3.853258e-08 -2.431014e-08 1.494470e-07 -4.300673e-07 3.700000e-05 0 0 0 4.782609e+01 1.806986e+01 2.256899e+01 5.934750e+01 -2.020230e+01 3.806249e+01 -8.953459e-09 NaN -2.762701e-08 0 0 0 -5.028524e+01 -1.056043e+01 1.645400e+01 -6.867161e+01 1.834727e+01 4.646085e+01 NaN 7.497670e-09 NaN -9.301000e-02 -4.739300e-01 -7.700000e-04 0 0 6.808270e-08 
0 0 0 -1.476570e+00 -2.458669e-01 -1.277514e+01 -6.663400e-02 1.286600e+01 1.491400e-02 3.326420e+00 -1.776390e+01 9.956006e-01 0 3.068339e-08 1.284464e-08 3.302580e+00 1.163390e+01 -6.666210e-01 2.280330e+00 -2.177708e+01 1.796953e+00 0 NaN -1.177500e-08 -1.134078e-07 4.235165e-22 1.200000e-05 0 0 0 5.188670e+01 1.566998e+01 1.875220e+01 7.112313e+01 -1.745038e+01 5.030799e+01 -1.001396e-08 NaN -1.876901e-07 0 0 0 -5.354288e+01 -1.494148e+01 1.816887e+01 -7.560450e+01 1.762180e+01 5.735346e+01 NaN -2.241511e-07 1.129448e-08 -2.096609e-01 -5.938640e-01 -2.176000e-03 0 0 4.672430e-07 
0 0 0 -1.628070e+00 -3.393509e-01 -1.315079e+01 -1.506749e-01 1.293920e+01 3.379766e-02 3.843037e+00 -1.738030e+01 1.107830e+00 0 NaN 2.881902e-09 3.734280e+00 1.306360e+01 -8.449546e-01 1.625882e+00 NaN 1.928510e+00 0 3.846154e-08 -3.036858e-09 -1.222741e-07 -3.113673e-06 1.297000e-05 0 0 0 5.747990e+01 1.298188e+01 1.471021e+01 8.294315e+01 -1.581590e+01 7.317920e+01 -7.321907e-10 -2.739932e-07 NaN 0 0 0 -5.796030e+01 -1.899750e+01 1.845940e+01 -8.296766e+01 1.336059e+01 7.026308e+01 -9.475029e-08 NaN 1.588870e-07 -1.011771e-01 -4.736450e-01 -8.430518e-04 0 0 NaN 
0 0 0 -1.859291e+00 -5.186321e-01 -1.319024e+01 3.235660e-01 1.280669e+01 -7.218449e-02 3.431228e+00 -1.694720e+01 1.095128e+00 0 3.610020e-08 -1.508720e-08 4.087317e+00 1.192740e+01 -8.468400e-01 1.292591e+00 -2.163134e+01 1.731521e+00 0 5.543120e-08 -2.328185e-08 6.188665e-08 -2.654874e-06 -1.070000e-04 0 0 0 6.508391e+01 6.794137e+00 9.408099e+00 9.085989e+01 -1.370681e+01 9.313946e+01 -1.349196e-08 NaN NaN 0 0 0 -6.122904e+01 -2.381102e+01 1.910664e+01 -9.161355e+01 7.544348e+00 1.000211e+02 -8.507327e-08 NaN NaN -6.682000e-03 -6.707840e-01 -8.000000e-05 0 0 NaN 
0 0 0 -1.924348e+00 -5.925320e-01 -1.281202e+01 7.097932e-01 1.286765e+01 -1.580230e-01 3.298356e+00 -1.738590e+01 1.193500e+00 0 NaN -1.019183e-08 4.643763e+00 1.168180e+01 -9.464531e-01 5.552138e-01 -2.148691e+01 1.626250e+00 0 4.824561e-08 6.015717e-08 1.001644e-07 -8.470329e-22 -4.200000e-05 0 0 0 7.110597e+01 5.294920e-01 6.183932e+00 9.907209e+01 -1.545792e+01 1.130060e+02 8.464090e-10 NaN 7.805255e-08 0 0 0 -6.533171e+01 -2.748446e+01 1.826909e+01 -9.861368e+01 2.309536e-01 1.479494e+02 NaN 7.271160e-08 NaN -2.748739e-01 -8.219970e-01 -3.949000e-03 0 0 1.154470e-07 
0 0 0 -2.012285e+00 -7.645896e-01 -1.198541e+01 8.205789e-01 1.355880e+01 -1.922524e-01 3.229062e+00 -1.884720e+01 1.300798e+00 0 NaN -1.215378e-08 4.682160e+00 1.258800e+01 -1.022341e+00 7.992300e-01 NaN 1.886780e+00 0 NaN NaN -1.507926e-07 -3.338647e-06 1.200000e-05 0 0 0 7.619750e+01 -6.678493e+00 4.111790e+00 1.059372e+02 -1.915698e+01 1.224244e+02 -1.800986e-07 6.326532e-08 -3.068041e-08 0 0 0 -7.173480e+01 -3.039288e+01 1.548770e+01 -1.038499e+02 -9.021717e+00 -1.683984e+02 -1.801802e-08 8.749087e-08 4.995531e-08 -2.240130e-01 -1.013290e+00 -3.962000e-03 0 0 2.199283e-08 
0 0 0 -2.234536e+00 -1.104203e+00 -1.152430e+01 9.460100e-01 1.392090e+01 -2.275802e-01 3.378883e+00 -1.891980e+01 1.395475e+00 0 8.388715e-09 2.141002e-07 4.406844e+00 1.388700e+01 -1.059791e+00 2.035110e+00 -2.045902e+01 2.397890e+00 0 2.692423e-08 NaN -6.428976e-08 0 -8.997410e-05 0 0 0 8.115842e+01 -1.492222e+01 3.113452e+00 1.100548e+02 -2.317334e+01 1.245650e+02 NaN 8.221892e-08 2.059983e-08 0 0 0 -7.367376e+01 -3.259480e+01 1.483240e+01 -1.091523e+02 -1.603714e+01 -1.553537e+02 -3.005313e-07 5.384553e-08 1.461668e-07 -1.794100e-02 -1.167540e+00 -3.650000e-04 0 0 -3.733492e-07 
